<svg width="100" height="100" viewBox="0 0 100 100" fill="none" xmlns="http://www.w3.org/2000/svg">
<path fill-rule="evenodd" clip-rule="evenodd" d="M48.0732 85.76C50.7769 72.9598 57.3901 60.9483 66.221 51.1166C65.3147 52.0168 64.4302 52.9357 63.5692 53.8713C53.1048 65.244 45.617 79.6425 43.8184 94.8735C67.5429 97.4155 90.2781 82.8911 96.646 59.8928C99.2649 50.4336 98.7439 40.8763 95.7031 32.2559C92.6587 33.3481 89.6887 34.6418 86.8114 36.1139C88.9977 42.8137 89.3023 50.1759 87.2839 57.4652C82.459 74.8912 65.9287 86.2535 48.0732 85.76Z" fill="#009951"/>
<path fill-rule="evenodd" clip-rule="evenodd" d="M48.0732 85.76C50.7769 72.9598 57.3901 60.9483 66.221 51.1166C65.3147 52.0168 64.4302 52.9357 63.5692 53.8713C53.1048 65.244 45.617 79.6425 43.8184 94.8735C67.5429 97.4155 90.2781 82.8911 96.646 59.8928C99.2649 50.4336 98.7439 40.8763 95.7031 32.2559C92.6587 33.3481 89.6887 34.6418 86.8114 36.1139C88.9977 42.8137 89.3023 50.1759 87.2839 57.4652C82.459 74.8912 65.9287 86.2535 48.0732 85.76Z" fill="#87DF2C"/>
<path fill-rule="evenodd" clip-rule="evenodd" d="M61.8881 1.63306C75.1454 5.07079 85.6756 13.4395 91.9415 24.153C88.3665 24.2557 84.7426 24.5907 81.1005 25.1483L81.0989 25.1463C73.125 26.3675 65.0671 28.6418 57.2677 31.8039C64.4209 28.3917 72.2944 25.3355 79.8082 23.5177C74.7478 17.4719 67.7395 12.8608 59.3791 10.6932C38.3281 5.2345 16.6898 17.3241 11.0491 37.6964C8.88256 45.5202 9.39292 53.4272 12.0336 60.5094C22.4692 49.4311 34.2481 41.9912 46.6004 36.7687C30.9205 45.0454 16.3391 57.268 7.2062 72.3564C0.4485 61.6346 -1.93701 48.3577 1.68694 35.2687C8.7134 9.89301 35.666 -5.16632 61.8881 1.63306Z" fill="#006FFD"/>
<path fill-rule="evenodd" clip-rule="evenodd" d="M20.668 94.7191L41.0374 100.001C41.9865 69.1546 66.3103 39.6577 96.3193 29.5835C79.0968 32.6627 62.9605 39.7159 49.5023 50.8348C35.6177 62.3062 25.3167 77.5942 20.668 94.7191Z" fill="#B4DBFF"/>
<path fill-rule="evenodd" clip-rule="evenodd" d="M100 26.6501C60.6086 23.5473 12.065 52.9813 2.15625 89.9176L18.363 94.1201C23.1368 76.5435 33.7012 60.8509 47.9542 49.0755C62.7986 36.8111 80.8261 29.3677 100 26.6501Z" fill="#6FBAFF"/>
</svg>
