<svg width="168" height="115" viewBox="0 0 168 115" fill="none" xmlns="http://www.w3.org/2000/svg">
<path fill-rule="evenodd" clip-rule="evenodd" d="M82.3174 74.8935C84.6785 63.7151 90.4539 53.2253 98.1659 44.6393C97.3744 45.4254 96.602 46.2279 95.85 47.045C86.7115 56.9768 80.1723 69.5511 78.6016 82.8523C99.3204 85.0722 119.175 72.388 124.736 52.3036C127.023 44.0428 126.568 35.6964 123.913 28.1682C121.254 29.122 118.66 30.2518 116.148 31.5374C118.057 37.3883 118.323 43.8177 116.56 50.1835C112.347 65.4017 97.9107 75.3245 82.3174 74.8935Z" fill="#009951"/>
<path fill-rule="evenodd" clip-rule="evenodd" d="M82.3174 74.8935C84.6785 63.7151 90.4539 53.2253 98.1659 44.6393C97.3744 45.4254 96.602 46.2279 95.85 47.045C86.7115 56.9768 80.1723 69.5511 78.6016 82.8523C99.3204 85.0722 119.175 72.388 124.736 52.3036C127.023 44.0428 126.568 35.6964 123.913 28.1682C121.254 29.122 118.66 30.2518 116.148 31.5374C118.057 37.3883 118.323 43.8177 116.56 50.1835C112.347 65.4017 97.9107 75.3245 82.3174 74.8935Z" fill="#87DF2C"/>
<path fill-rule="evenodd" clip-rule="evenodd" d="M94.3821 1.42649C105.96 4.42867 115.156 11.7371 120.628 21.0932C117.506 21.1829 114.341 21.4755 111.16 21.9624L111.159 21.9607C104.195 23.0272 97.1584 25.0133 90.3471 27.7748C96.5941 24.7949 103.47 22.1259 110.032 20.5384C105.613 15.2586 99.4922 11.2317 92.191 9.33874C73.8071 4.57164 54.9102 15.1295 49.9842 32.9207C48.0921 39.7532 48.5378 46.6585 50.844 52.8434C59.9574 43.1687 70.244 36.6714 81.0313 32.1106C67.338 39.3386 54.604 50.0127 46.6282 63.1895C40.7266 53.826 38.6434 42.2312 41.8082 30.8006C47.9444 8.63993 71.4823 -4.51143 94.3821 1.42649Z" fill="#006FFD"/>
<path fill-rule="evenodd" clip-rule="evenodd" d="M58.3867 82.7174L76.1754 87.3301C77.0043 60.3919 98.2464 34.6321 124.453 25.8343C109.413 28.5234 95.321 34.6829 83.5679 44.3931C71.4424 54.4111 62.4465 67.7622 58.3867 82.7174Z" fill="#B4DBFF"/>
<path fill-rule="evenodd" clip-rule="evenodd" d="M127.665 23.2735C93.2635 20.5638 50.8702 46.2686 42.2168 78.5253L56.3702 82.1953C60.5393 66.8456 69.7652 53.1412 82.2124 42.8577C95.1761 32.1471 110.92 25.6468 127.665 23.2735Z" fill="#6FBAFF"/>
<path d="M55.1136 103.057H51.9091C51.8864 102.792 51.8258 102.552 51.7273 102.336C51.6326 102.12 51.5 101.934 51.3295 101.779C51.1629 101.62 50.9602 101.499 50.7216 101.415C50.483 101.328 50.2121 101.285 49.9091 101.285C49.3788 101.285 48.9299 101.413 48.5625 101.671C48.1989 101.929 47.9223 102.298 47.733 102.779C47.5473 103.26 47.4545 103.838 47.4545 104.512C47.4545 105.224 47.5492 105.821 47.7386 106.302C47.9318 106.779 48.2102 107.139 48.5739 107.381C48.9375 107.62 49.375 107.739 49.8864 107.739C50.178 107.739 50.4394 107.703 50.6705 107.631C50.9015 107.555 51.1023 107.448 51.2727 107.307C51.4432 107.167 51.5814 106.999 51.6875 106.802C51.7973 106.601 51.8712 106.376 51.9091 106.126L55.1136 106.148C55.0758 106.641 54.9375 107.143 54.6989 107.654C54.4602 108.162 54.1212 108.631 53.6818 109.063C53.2462 109.491 52.7064 109.836 52.0625 110.097C51.4186 110.358 50.6705 110.489 49.8182 110.489C48.75 110.489 47.7917 110.26 46.9432 109.802C46.0985 109.343 45.4299 108.669 44.9375 107.779C44.4489 106.889 44.2045 105.8 44.2045 104.512C44.2045 103.216 44.4545 102.126 44.9545 101.239C45.4545 100.349 46.1288 99.6767 46.9773 99.2221C47.8258 98.7638 48.7727 98.5346 49.8182 98.5346C50.553 98.5346 51.2292 98.635 51.8466 98.8358C52.464 99.0365 53.0057 99.3301 53.4716 99.7164C53.9375 100.099 54.3125 100.571 54.5966 101.131C54.8807 101.692 55.053 102.334 55.1136 103.057ZM59.8887 98.6937V110.33H56.7523V98.6937H59.8887ZM65.8285 110.489C64.8967 110.489 64.0937 110.311 63.4194 109.955C62.749 109.595 62.2319 109.08 61.8683 108.41C61.5084 107.735 61.3285 106.929 61.3285 105.989C61.3285 105.088 61.5103 104.3 61.874 103.626C62.2376 102.951 62.7509 102.427 63.4137 102.052C64.0766 101.677 64.8588 101.489 65.7603 101.489C66.4194 101.489 67.016 101.591 67.5501 101.796C68.0842 102.001 68.5406 102.298 68.9194 102.688C69.2982 103.074 69.5899 103.544 69.7944 104.097C69.999 104.65 70.1012 105.273 70.1012 105.966V106.694H62.3058V104.966H67.2149C67.2111 104.716 67.1467 104.497 67.0217 104.307C66.9005 104.114 66.7357 103.965 66.5274 103.858C66.3228 103.749 66.0899 103.694 65.8285 103.694C65.5747 103.694 65.3418 103.749 65.1297 103.858C64.9175 103.965 64.7471 104.112 64.6183 104.302C64.4933 104.491 64.427 104.713 64.4194 104.966V106.83C64.4194 107.11 64.4781 107.36 64.5956 107.58C64.713 107.8 64.8816 107.972 65.1012 108.097C65.3209 108.222 65.5861 108.285 65.8967 108.285C66.1126 108.285 66.3096 108.254 66.4876 108.194C66.6694 108.133 66.8247 108.046 66.9535 107.932C67.0823 107.815 67.177 107.675 67.2376 107.512H70.1012C70.0028 108.118 69.7698 108.644 69.4024 109.091C69.035 109.535 68.5482 109.879 67.9422 110.126C67.3399 110.368 66.6353 110.489 65.8285 110.489ZM73.9729 110.466C73.4161 110.466 72.9237 110.376 72.4956 110.194C72.0714 110.008 71.738 109.728 71.4956 109.353C71.2532 108.978 71.132 108.501 71.132 107.921C71.132 107.444 71.2134 107.037 71.3763 106.699C71.5392 106.358 71.7665 106.08 72.0581 105.864C72.3498 105.648 72.6888 105.483 73.0752 105.37C73.4653 105.256 73.8858 105.182 74.3365 105.148C74.8252 105.11 75.2172 105.065 75.5127 105.012C75.8119 104.955 76.0278 104.877 76.1604 104.779C76.293 104.677 76.3593 104.542 76.3593 104.376V104.353C76.3593 104.126 76.2721 103.951 76.0979 103.83C75.9237 103.709 75.7002 103.648 75.4274 103.648C75.1282 103.648 74.8839 103.715 74.6945 103.847C74.5089 103.976 74.3971 104.175 74.3593 104.444H71.4729C71.5108 103.913 71.6793 103.425 71.9786 102.978C72.2816 102.527 72.7229 102.167 73.3024 101.898C73.882 101.626 74.6055 101.489 75.4729 101.489C76.0979 101.489 76.6585 101.563 77.1547 101.711C77.6509 101.855 78.0733 102.057 78.4218 102.319C78.7702 102.576 79.0354 102.879 79.2172 103.228C79.4028 103.573 79.4956 103.948 79.4956 104.353V110.33H76.5638V109.103H76.4956C76.3214 109.429 76.1093 109.692 75.8593 109.893C75.613 110.093 75.3309 110.239 75.0127 110.33C74.6983 110.421 74.3517 110.466 73.9729 110.466ZM74.9956 108.489C75.2343 108.489 75.4577 108.44 75.6661 108.341C75.8782 108.243 76.0505 108.101 76.1831 107.915C76.3157 107.73 76.382 107.504 76.382 107.239V106.512C76.2987 106.546 76.2096 106.578 76.1149 106.608C76.024 106.639 75.9255 106.667 75.8195 106.694C75.7172 106.72 75.6074 106.745 75.4899 106.768C75.3763 106.79 75.257 106.811 75.132 106.83C74.8896 106.868 74.6907 106.93 74.5354 107.018C74.3839 107.101 74.2702 107.205 74.1945 107.33C74.1225 107.451 74.0865 107.588 74.0865 107.739C74.0865 107.982 74.1718 108.167 74.3422 108.296C74.5127 108.425 74.7305 108.489 74.9956 108.489ZM81.1542 110.33V101.603H84.1997V103.262H84.2906C84.4497 102.648 84.7016 102.199 85.0462 101.915C85.3947 101.631 85.8019 101.489 86.2678 101.489C86.4042 101.489 86.5387 101.501 86.6712 101.523C86.8076 101.542 86.9383 101.571 87.0633 101.608V104.285C86.908 104.232 86.7167 104.192 86.4894 104.165C86.2622 104.139 86.0671 104.126 85.9042 104.126C85.5974 104.126 85.3209 104.196 85.0747 104.336C84.8322 104.472 84.6409 104.665 84.5008 104.915C84.3606 105.162 84.2906 105.451 84.2906 105.785V110.33H81.1542ZM93.1447 110.33L90.9628 101.603H94.0992L95.0992 106.921H95.1674L96.281 101.603H99.3265L100.486 106.876H100.554L101.508 101.603H104.645L102.463 110.33H99.0765L97.8492 105.648H97.7583L96.531 110.33H93.1447ZM108.191 110.466C107.634 110.466 107.142 110.376 106.714 110.194C106.29 110.008 105.956 109.728 105.714 109.353C105.471 108.978 105.35 108.501 105.35 107.921C105.35 107.444 105.432 107.037 105.594 106.699C105.757 106.358 105.985 106.08 106.276 105.864C106.568 105.648 106.907 105.483 107.293 105.37C107.683 105.256 108.104 105.182 108.555 105.148C109.043 105.11 109.435 105.065 109.731 105.012C110.03 104.955 110.246 104.877 110.379 104.779C110.511 104.677 110.577 104.542 110.577 104.376V104.353C110.577 104.126 110.49 103.951 110.316 103.83C110.142 103.709 109.918 103.648 109.646 103.648C109.346 103.648 109.102 103.715 108.913 103.847C108.727 103.976 108.615 104.175 108.577 104.444H105.691C105.729 103.913 105.897 103.425 106.197 102.978C106.5 102.527 106.941 102.167 107.521 101.898C108.1 101.626 108.824 101.489 109.691 101.489C110.316 101.489 110.877 101.563 111.373 101.711C111.869 101.855 112.291 102.057 112.64 102.319C112.988 102.576 113.254 102.879 113.435 103.228C113.621 103.573 113.714 103.948 113.714 104.353V110.33H110.782V109.103H110.714C110.54 109.429 110.327 109.692 110.077 109.893C109.831 110.093 109.549 110.239 109.231 110.33C108.916 110.421 108.57 110.466 108.191 110.466ZM109.214 108.489C109.452 108.489 109.676 108.44 109.884 108.341C110.096 108.243 110.269 108.101 110.401 107.915C110.534 107.73 110.6 107.504 110.6 107.239V106.512C110.517 106.546 110.428 106.578 110.333 106.608C110.242 106.639 110.144 106.667 110.038 106.694C109.935 106.72 109.825 106.745 109.708 106.768C109.594 106.79 109.475 106.811 109.35 106.83C109.108 106.868 108.909 106.93 108.754 107.018C108.602 107.101 108.488 107.205 108.413 107.33C108.341 107.451 108.305 107.588 108.305 107.739C108.305 107.982 108.39 108.167 108.56 108.296C108.731 108.425 108.949 108.489 109.214 108.489ZM116.969 113.603C116.609 113.603 116.266 113.574 115.941 113.518C115.615 113.465 115.329 113.391 115.083 113.296L115.764 111.069C116.022 111.16 116.257 111.218 116.469 111.245C116.685 111.271 116.869 111.256 117.02 111.199C117.175 111.143 117.287 111.035 117.355 110.876L117.423 110.716L114.355 101.603H117.628L119.037 107.648H119.128L120.56 101.603H123.855L120.673 111.057C120.514 111.538 120.283 111.97 119.98 112.353C119.681 112.739 119.287 113.044 118.798 113.268C118.31 113.491 117.7 113.603 116.969 113.603Z" fill="#1E1E1E"/>
<path d="M55.1136 103.057H51.9091C51.8864 102.792 51.8258 102.552 51.7273 102.336C51.6326 102.12 51.5 101.934 51.3295 101.779C51.1629 101.62 50.9602 101.499 50.7216 101.415C50.483 101.328 50.2121 101.285 49.9091 101.285C49.3788 101.285 48.9299 101.413 48.5625 101.671C48.1989 101.929 47.9223 102.298 47.733 102.779C47.5473 103.26 47.4545 103.838 47.4545 104.512C47.4545 105.224 47.5492 105.821 47.7386 106.302C47.9318 106.779 48.2102 107.139 48.5739 107.381C48.9375 107.62 49.375 107.739 49.8864 107.739C50.178 107.739 50.4394 107.703 50.6705 107.631C50.9015 107.555 51.1023 107.448 51.2727 107.307C51.4432 107.167 51.5814 106.999 51.6875 106.802C51.7973 106.601 51.8712 106.376 51.9091 106.126L55.1136 106.148C55.0758 106.641 54.9375 107.143 54.6989 107.654C54.4602 108.162 54.1212 108.631 53.6818 109.063C53.2462 109.491 52.7064 109.836 52.0625 110.097C51.4186 110.358 50.6705 110.489 49.8182 110.489C48.75 110.489 47.7917 110.26 46.9432 109.802C46.0985 109.343 45.4299 108.669 44.9375 107.779C44.4489 106.889 44.2045 105.8 44.2045 104.512C44.2045 103.216 44.4545 102.126 44.9545 101.239C45.4545 100.349 46.1288 99.6767 46.9773 99.2221C47.8258 98.7638 48.7727 98.5346 49.8182 98.5346C50.553 98.5346 51.2292 98.635 51.8466 98.8358C52.464 99.0365 53.0057 99.3301 53.4716 99.7164C53.9375 100.099 54.3125 100.571 54.5966 101.131C54.8807 101.692 55.053 102.334 55.1136 103.057ZM59.8887 98.6937V110.33H56.7523V98.6937H59.8887ZM65.8285 110.489C64.8967 110.489 64.0937 110.311 63.4194 109.955C62.749 109.595 62.2319 109.08 61.8683 108.41C61.5084 107.735 61.3285 106.929 61.3285 105.989C61.3285 105.088 61.5103 104.3 61.874 103.626C62.2376 102.951 62.7509 102.427 63.4137 102.052C64.0766 101.677 64.8588 101.489 65.7603 101.489C66.4194 101.489 67.016 101.591 67.5501 101.796C68.0842 102.001 68.5406 102.298 68.9194 102.688C69.2982 103.074 69.5899 103.544 69.7944 104.097C69.999 104.65 70.1012 105.273 70.1012 105.966V106.694H62.3058V104.966H67.2149C67.2111 104.716 67.1467 104.497 67.0217 104.307C66.9005 104.114 66.7357 103.965 66.5274 103.858C66.3228 103.749 66.0899 103.694 65.8285 103.694C65.5747 103.694 65.3418 103.749 65.1297 103.858C64.9175 103.965 64.7471 104.112 64.6183 104.302C64.4933 104.491 64.427 104.713 64.4194 104.966V106.83C64.4194 107.11 64.4781 107.36 64.5956 107.58C64.713 107.8 64.8816 107.972 65.1012 108.097C65.3209 108.222 65.5861 108.285 65.8967 108.285C66.1126 108.285 66.3096 108.254 66.4876 108.194C66.6694 108.133 66.8247 108.046 66.9535 107.932C67.0823 107.815 67.177 107.675 67.2376 107.512H70.1012C70.0028 108.118 69.7698 108.644 69.4024 109.091C69.035 109.535 68.5482 109.879 67.9422 110.126C67.3399 110.368 66.6353 110.489 65.8285 110.489ZM73.9729 110.466C73.4161 110.466 72.9237 110.376 72.4956 110.194C72.0714 110.008 71.738 109.728 71.4956 109.353C71.2532 108.978 71.132 108.501 71.132 107.921C71.132 107.444 71.2134 107.037 71.3763 106.699C71.5392 106.358 71.7665 106.08 72.0581 105.864C72.3498 105.648 72.6888 105.483 73.0752 105.37C73.4653 105.256 73.8858 105.182 74.3365 105.148C74.8252 105.11 75.2172 105.065 75.5127 105.012C75.8119 104.955 76.0278 104.877 76.1604 104.779C76.293 104.677 76.3593 104.542 76.3593 104.376V104.353C76.3593 104.126 76.2721 103.951 76.0979 103.83C75.9237 103.709 75.7002 103.648 75.4274 103.648C75.1282 103.648 74.8839 103.715 74.6945 103.847C74.5089 103.976 74.3971 104.175 74.3593 104.444H71.4729C71.5108 103.913 71.6793 103.425 71.9786 102.978C72.2816 102.527 72.7229 102.167 73.3024 101.898C73.882 101.626 74.6055 101.489 75.4729 101.489C76.0979 101.489 76.6585 101.563 77.1547 101.711C77.6509 101.855 78.0733 102.057 78.4218 102.319C78.7702 102.576 79.0354 102.879 79.2172 103.228C79.4028 103.573 79.4956 103.948 79.4956 104.353V110.33H76.5638V109.103H76.4956C76.3214 109.429 76.1093 109.692 75.8593 109.893C75.613 110.093 75.3309 110.239 75.0127 110.33C74.6983 110.421 74.3517 110.466 73.9729 110.466ZM74.9956 108.489C75.2343 108.489 75.4577 108.44 75.6661 108.341C75.8782 108.243 76.0505 108.101 76.1831 107.915C76.3157 107.73 76.382 107.504 76.382 107.239V106.512C76.2987 106.546 76.2096 106.578 76.1149 106.608C76.024 106.639 75.9255 106.667 75.8195 106.694C75.7172 106.72 75.6074 106.745 75.4899 106.768C75.3763 106.79 75.257 106.811 75.132 106.83C74.8896 106.868 74.6907 106.93 74.5354 107.018C74.3839 107.101 74.2702 107.205 74.1945 107.33C74.1225 107.451 74.0865 107.588 74.0865 107.739C74.0865 107.982 74.1718 108.167 74.3422 108.296C74.5127 108.425 74.7305 108.489 74.9956 108.489ZM81.1542 110.33V101.603H84.1997V103.262H84.2906C84.4497 102.648 84.7016 102.199 85.0462 101.915C85.3947 101.631 85.8019 101.489 86.2678 101.489C86.4042 101.489 86.5387 101.501 86.6712 101.523C86.8076 101.542 86.9383 101.571 87.0633 101.608V104.285C86.908 104.232 86.7167 104.192 86.4894 104.165C86.2622 104.139 86.0671 104.126 85.9042 104.126C85.5974 104.126 85.3209 104.196 85.0747 104.336C84.8322 104.472 84.6409 104.665 84.5008 104.915C84.3606 105.162 84.2906 105.451 84.2906 105.785V110.33H81.1542ZM93.1447 110.33L90.9628 101.603H94.0992L95.0992 106.921H95.1674L96.281 101.603H99.3265L100.486 106.876H100.554L101.508 101.603H104.645L102.463 110.33H99.0765L97.8492 105.648H97.7583L96.531 110.33H93.1447ZM108.191 110.466C107.634 110.466 107.142 110.376 106.714 110.194C106.29 110.008 105.956 109.728 105.714 109.353C105.471 108.978 105.35 108.501 105.35 107.921C105.35 107.444 105.432 107.037 105.594 106.699C105.757 106.358 105.985 106.08 106.276 105.864C106.568 105.648 106.907 105.483 107.293 105.37C107.683 105.256 108.104 105.182 108.555 105.148C109.043 105.11 109.435 105.065 109.731 105.012C110.03 104.955 110.246 104.877 110.379 104.779C110.511 104.677 110.577 104.542 110.577 104.376V104.353C110.577 104.126 110.49 103.951 110.316 103.83C110.142 103.709 109.918 103.648 109.646 103.648C109.346 103.648 109.102 103.715 108.913 103.847C108.727 103.976 108.615 104.175 108.577 104.444H105.691C105.729 103.913 105.897 103.425 106.197 102.978C106.5 102.527 106.941 102.167 107.521 101.898C108.1 101.626 108.824 101.489 109.691 101.489C110.316 101.489 110.877 101.563 111.373 101.711C111.869 101.855 112.291 102.057 112.64 102.319C112.988 102.576 113.254 102.879 113.435 103.228C113.621 103.573 113.714 103.948 113.714 104.353V110.33H110.782V109.103H110.714C110.54 109.429 110.327 109.692 110.077 109.893C109.831 110.093 109.549 110.239 109.231 110.33C108.916 110.421 108.57 110.466 108.191 110.466ZM109.214 108.489C109.452 108.489 109.676 108.44 109.884 108.341C110.096 108.243 110.269 108.101 110.401 107.915C110.534 107.73 110.6 107.504 110.6 107.239V106.512C110.517 106.546 110.428 106.578 110.333 106.608C110.242 106.639 110.144 106.667 110.038 106.694C109.935 106.72 109.825 106.745 109.708 106.768C109.594 106.79 109.475 106.811 109.35 106.83C109.108 106.868 108.909 106.93 108.754 107.018C108.602 107.101 108.488 107.205 108.413 107.33C108.341 107.451 108.305 107.588 108.305 107.739C108.305 107.982 108.39 108.167 108.56 108.296C108.731 108.425 108.949 108.489 109.214 108.489ZM116.969 113.603C116.609 113.603 116.266 113.574 115.941 113.518C115.615 113.465 115.329 113.391 115.083 113.296L115.764 111.069C116.022 111.16 116.257 111.218 116.469 111.245C116.685 111.271 116.869 111.256 117.02 111.199C117.175 111.143 117.287 111.035 117.355 110.876L117.423 110.716L114.355 101.603H117.628L119.037 107.648H119.128L120.56 101.603H123.855L120.673 111.057C120.514 111.538 120.283 111.97 119.98 112.353C119.681 112.739 119.287 113.044 118.798 113.268C118.31 113.491 117.7 113.603 116.969 113.603Z" fill="#F88601"/>
</svg>
